<svg width="1440" height="1250" viewBox="0 0 1440 1250" fill="none" xmlns="http://www.w3.org/2000/svg">
<path d="M-97.8924 763.249C1178.94 1032.31 362.252 130.15 1133.26 155.312C1750.06 175.441 1991.04 458.876 2034.43 598.078" stroke="#FEFEFE" stroke-opacity="0.02" stroke-width="5"/>
<path d="M-137.516 794.72C1139.32 1063.78 322.628 161.621 1093.63 186.783C1710.44 206.913 1951.42 490.348 1994.81 629.549" stroke="#FEFEFE" stroke-opacity="0.02" stroke-width="5"/>
<path d="M-165.432 825.273C1111.4 1094.34 294.712 192.174 1065.72 217.336C1682.52 237.466 1923.5 520.901 1966.89 660.102" stroke="#FEFEFE" stroke-opacity="0.02" stroke-width="5"/>
<path d="M-221.749 856.295C1055.09 1125.36 238.395 223.196 1009.4 248.358C1626.21 268.488 1867.19 551.923 1910.58 691.124" stroke="#FEFEFE" stroke-opacity="0.02" stroke-width="5"/>
<path d="M-277.311 891.655C999.524 1160.72 182.834 258.556 953.839 283.718C1570.64 303.848 1811.62 587.283 1855.01 726.484" stroke="#FEFEFE" stroke-opacity="0.02" stroke-width="5"/>
<path d="M-312.515 921.241C964.32 1190.3 147.629 288.142 918.635 313.304C1535.44 333.433 1776.42 616.868 1819.81 756.07" stroke="#FEFEFE" stroke-opacity="0.02" stroke-width="5"/>
<path d="M-352.139 952.712C924.696 1221.78 108.005 319.613 879.011 344.775C1495.82 364.905 1736.8 648.34 1780.19 787.541" stroke="#FEFEFE" stroke-opacity="0.02" stroke-width="5"/>
<path d="M-380.055 983.266C896.78 1252.33 80.089 350.166 851.095 375.328C1467.9 395.458 1708.88 678.893 1752.27 818.094" stroke="#FEFEFE" stroke-opacity="0.02" stroke-width="5"/>
<path d="M-436.371 1014.29C840.464 1283.35 23.773 381.188 794.779 406.35C1411.58 426.48 1652.56 709.915 1695.95 849.116" stroke="#FEFEFE" stroke-opacity="0.02" stroke-width="5"/>
<path d="M-491.933 1049.65C784.902 1318.71 -31.7889 416.548 739.217 441.71C1356.02 461.84 1597 745.275 1640.39 884.476" stroke="#FEFEFE" stroke-opacity="0.02" stroke-width="5"/>
<path d="M-97.8924 763.249C1178.94 1032.31 362.252 130.15 1133.26 155.312C1750.06 175.441 1991.04 458.876 2034.43 598.078" stroke="#FEFEFE" stroke-opacity="0.02" stroke-width="5"/>
<path d="M-137.516 794.72C1139.32 1063.78 322.628 161.621 1093.63 186.783C1710.44 206.913 1951.42 490.348 1994.81 629.549" stroke="#FEFEFE" stroke-opacity="0.02" stroke-width="5"/>
<path d="M-165.432 825.273C1111.4 1094.34 294.712 192.174 1065.72 217.336C1682.52 237.466 1923.5 520.901 1966.89 660.102" stroke="#FEFEFE" stroke-opacity="0.02" stroke-width="5"/>
<path d="M-221.749 856.295C1055.09 1125.36 238.395 223.196 1009.4 248.358C1626.21 268.488 1867.19 551.923 1910.58 691.124" stroke="#FEFEFE" stroke-opacity="0.02" stroke-width="5"/>
<path d="M-277.311 891.655C999.524 1160.72 182.834 258.556 953.839 283.718C1570.64 303.848 1811.62 587.283 1855.01 726.484" stroke="#FEFEFE" stroke-opacity="0.02" stroke-width="5"/>
<path d="M-312.515 921.241C964.32 1190.3 147.629 288.142 918.635 313.304C1535.44 333.433 1776.42 616.868 1819.81 756.07" stroke="#FEFEFE" stroke-opacity="0.02" stroke-width="5"/>
<path d="M-352.139 952.712C924.696 1221.78 108.005 319.613 879.011 344.775C1495.82 364.905 1736.8 648.34 1780.19 787.541" stroke="#FEFEFE" stroke-opacity="0.02" stroke-width="5"/>
<path d="M-380.055 983.266C896.78 1252.33 80.089 350.166 851.095 375.328C1467.9 395.458 1708.88 678.893 1752.27 818.094" stroke="#FEFEFE" stroke-opacity="0.02" stroke-width="5"/>
<path d="M-436.371 1014.29C840.464 1283.35 23.773 381.188 794.779 406.35C1411.58 426.48 1652.56 709.915 1695.95 849.116" stroke="#FEFEFE" stroke-opacity="0.02" stroke-width="5"/>
<path d="M-491.933 1049.65C784.902 1318.71 -31.7889 416.548 739.217 441.71C1356.02 461.84 1597 745.275 1640.39 884.476" stroke="#FEFEFE" stroke-opacity="0.02" stroke-width="5"/>
</svg>
