<svg width="1440" height="1629" viewBox="0 0 1440 1629" fill="none" xmlns="http://www.w3.org/2000/svg">
<path d="M-46.2151 1114.92C569.187 172.173 628.656 1257.94 1085.48 779.468C1450.94 396.69 1422.69 64.9174 1362.89 -53.1219" stroke="#FEFEFE" stroke-opacity="0.02" stroke-width="5"/>
<path d="M-90.0267 1117.84C525.375 175.097 584.844 1260.86 1041.67 782.392C1407.12 399.614 1378.88 67.8411 1319.08 -50.1982" stroke="#FEFEFE" stroke-opacity="0.02" stroke-width="5"/>
<path d="M-126.094 1114.36C489.307 171.615 548.777 1257.38 1005.6 778.91C1371.06 396.132 1342.81 64.3591 1283.01 -53.6802" stroke="#FEFEFE" stroke-opacity="0.02" stroke-width="5"/>
<path d="M-179.855 1127.58C435.546 184.835 495.016 1270.6 951.838 792.13C1317.3 409.352 1289.05 77.579 1229.25 -40.4603" stroke="#FEFEFE" stroke-opacity="0.02" stroke-width="5"/>
<path d="M-235.846 1137.48C379.555 194.734 439.025 1280.5 895.847 802.029C1261.3 419.251 1233.06 87.4781 1173.26 -30.5612" stroke="#FEFEFE" stroke-opacity="0.02" stroke-width="5"/>
<path d="M-275.78 1139.01C339.622 196.258 399.091 1282.02 855.914 803.553C1221.37 420.775 1193.13 89.0018 1133.32 -29.0375" stroke="#FEFEFE" stroke-opacity="0.02" stroke-width="5"/>
<path d="M-319.591 1141.93C295.81 199.181 355.28 1284.95 812.102 806.476C1177.56 423.698 1149.32 91.9255 1089.51 -26.1138" stroke="#FEFEFE" stroke-opacity="0.02" stroke-width="5"/>
<path d="M-355.659 1138.45C259.743 195.7 319.212 1281.47 776.034 802.994C1141.49 420.217 1113.25 88.4435 1053.44 -29.5958" stroke="#FEFEFE" stroke-opacity="0.02" stroke-width="5"/>
<path d="M-409.42 1151.67C205.982 208.919 265.451 1294.69 722.273 816.214C1087.73 433.436 1059.49 101.663 999.683 -16.3759" stroke="#FEFEFE" stroke-opacity="0.02" stroke-width="5"/>
<path d="M-465.411 1161.57C149.991 218.819 209.46 1304.59 666.282 826.113C1031.74 443.336 1003.5 111.563 943.692 -6.47675" stroke="#FEFEFE" stroke-opacity="0.02" stroke-width="5"/>
<path d="M-46.2151 1114.92C569.187 172.173 628.656 1257.94 1085.48 779.468C1450.94 396.69 1422.69 64.9174 1362.89 -53.1219" stroke="#FEFEFE" stroke-opacity="0.02" stroke-width="5"/>
<path d="M-90.0267 1117.84C525.375 175.097 584.844 1260.86 1041.67 782.392C1407.12 399.614 1378.88 67.8411 1319.08 -50.1982" stroke="#FEFEFE" stroke-opacity="0.02" stroke-width="5"/>
<path d="M-126.094 1114.36C489.307 171.615 548.777 1257.38 1005.6 778.91C1371.06 396.132 1342.81 64.3591 1283.01 -53.6802" stroke="#FEFEFE" stroke-opacity="0.02" stroke-width="5"/>
<path d="M-179.855 1127.58C435.546 184.835 495.016 1270.6 951.838 792.13C1317.3 409.352 1289.05 77.579 1229.25 -40.4603" stroke="#FEFEFE" stroke-opacity="0.02" stroke-width="5"/>
<path d="M-235.846 1137.48C379.555 194.734 439.025 1280.5 895.847 802.029C1261.3 419.251 1233.06 87.4781 1173.26 -30.5612" stroke="#FEFEFE" stroke-opacity="0.02" stroke-width="5"/>
<path d="M-275.78 1139.01C339.622 196.258 399.091 1282.02 855.914 803.553C1221.37 420.775 1193.13 89.0018 1133.32 -29.0375" stroke="#FEFEFE" stroke-opacity="0.02" stroke-width="5"/>
<path d="M-319.591 1141.93C295.81 199.181 355.28 1284.95 812.102 806.476C1177.56 423.698 1149.32 91.9255 1089.51 -26.1138" stroke="#FEFEFE" stroke-opacity="0.02" stroke-width="5"/>
<path d="M-355.659 1138.45C259.743 195.7 319.212 1281.47 776.034 802.994C1141.49 420.217 1113.25 88.4435 1053.44 -29.5958" stroke="#FEFEFE" stroke-opacity="0.02" stroke-width="5"/>
<path d="M-409.42 1151.67C205.982 208.919 265.451 1294.69 722.273 816.214C1087.73 433.436 1059.49 101.663 999.683 -16.3759" stroke="#FEFEFE" stroke-opacity="0.02" stroke-width="5"/>
<path d="M-465.411 1161.57C149.991 218.819 209.46 1304.59 666.282 826.113C1031.74 443.336 1003.5 111.563 943.692 -6.47675" stroke="#FEFEFE" stroke-opacity="0.02" stroke-width="5"/>
</svg>
