<svg width="1440" height="2932" viewBox="0 0 1440 2932" fill="none" xmlns="http://www.w3.org/2000/svg">
<path d="M-275.557 1642.86C-5.46868 1674.21 635.342 1668.43 1037.88 1394.5C1541.05 1052.09 1661.41 933.422 1920.08 863.122C2178.75 792.821 2462.71 1136.71 2557.35 1296.92" stroke="#FEFEFE" stroke-opacity="0.02" stroke-width="5"/>
<path d="M-472.891 1664.66C-202.803 1696.01 438.008 1690.22 840.544 1416.3C1343.71 1073.89 1464.08 955.22 1722.75 884.919C1981.42 814.618 2265.38 1158.5 2360.02 1318.72" stroke="#FEFEFE" stroke-opacity="0.02" stroke-width="5"/>
<path d="M-366.127 1646.1C-96.0381 1677.45 544.773 1671.66 947.309 1397.74C1450.48 1055.33 1570.84 936.661 1829.51 866.361C2088.19 796.06 2372.14 1139.95 2466.78 1300.16" stroke="#FEFEFE" stroke-opacity="0.02" stroke-width="5"/>
<path d="M-509.564 1638.7C-239.475 1670.05 401.336 1664.26 803.872 1390.34C1307.04 1047.93 1427.4 929.261 1686.08 858.96C1944.75 788.66 2228.7 1132.55 2323.35 1292.76" stroke="#FEFEFE" stroke-opacity="0.02" stroke-width="5"/>
<path d="M-706.898 1660.49C-436.809 1691.84 204.002 1686.06 606.538 1412.13C1109.71 1069.72 1230.07 951.058 1488.74 880.757C1747.41 810.457 2031.37 1154.34 2126.01 1314.56" stroke="#FEFEFE" stroke-opacity="0.02" stroke-width="5"/>
<path d="M-600.133 1641.94C-330.045 1673.29 310.766 1667.5 713.302 1393.58C1216.47 1051.17 1336.83 932.5 1595.51 862.199C1854.18 791.898 2138.13 1135.78 2232.78 1296" stroke="#FEFEFE" stroke-opacity="0.02" stroke-width="5"/>
<path d="M-730.66 1616.63C-460.571 1647.98 180.24 1642.2 582.776 1368.27C1085.95 1025.86 1206.31 907.195 1464.98 836.894C1723.65 766.593 2007.61 1110.48 2102.25 1270.7" stroke="#FEFEFE" stroke-opacity="0.02" stroke-width="5"/>
<path d="M-927.994 1638.43C-657.905 1669.78 -17.0939 1663.99 385.442 1390.07C888.611 1047.66 1008.97 928.992 1267.65 858.691C1526.32 788.391 1810.27 1132.28 1904.92 1292.49" stroke="#FEFEFE" stroke-opacity="0.02" stroke-width="5"/>
<path d="M-821.229 1619.87C-551.141 1651.22 89.6705 1645.44 492.206 1371.51C995.376 1029.1 1115.74 910.433 1374.41 840.133C1633.08 769.832 1917.04 1113.72 2011.68 1273.93" stroke="#FEFEFE" stroke-opacity="0.02" stroke-width="5"/>
<path d="M-964.666 1612.47C-694.577 1643.82 -53.7664 1638.04 348.769 1364.11C851.939 1021.7 972.302 903.033 1230.97 832.732C1489.65 762.432 1773.6 1106.32 1868.24 1266.53" stroke="#FEFEFE" stroke-opacity="0.02" stroke-width="5"/>
<path d="M-1162 1634.27C-891.911 1665.62 -251.1 1659.83 151.435 1385.91C654.605 1043.5 774.968 924.83 1033.64 854.53C1292.31 784.229 1576.27 1128.12 1670.91 1288.33" stroke="#FEFEFE" stroke-opacity="0.02" stroke-width="5"/>
<path d="M-1055.24 1615.71C-785.147 1647.06 -144.336 1641.27 258.2 1367.35C761.369 1024.94 881.732 906.272 1140.4 835.971C1399.08 765.671 1683.03 1109.56 1777.67 1269.77" stroke="#FEFEFE" stroke-opacity="0.02" stroke-width="5"/>
</svg>
